<?xml version="1.0" standalone="no"?>
<!DOCTYPE svg PUBLIC "-//W3C//DTD SVG 20010904//EN"
 "http://www.w3.org/TR/2001/REC-SVG-20010904/DTD/svg10.dtd">
<svg version="1.0" xmlns="http://www.w3.org/2000/svg"
 width="512.000000pt" height="512.000000pt" viewBox="0 0 512.000000 512.000000"
 preserveAspectRatio="xMidYMid meet">

<g transform="translate(0.000000,512.000000) scale(0.100000,-0.100000)"
fill="#000000" stroke="none">
<path d="M3878 4723 c-408 -517 -388 -490 -388 -523 0 -76 30 -90 200 -90
l130 0 0 -115 c0 -131 14 -179 55 -195 39 -15 710 -13 738 2 42 22 46 37 47
176 l0 132 133 0 c86 0 141 5 157 13 31 16 53 58 45 89 -3 13 -162 222 -353
463 l-347 440 -52 3 -51 3 -314 -398z m630 -148 l229 -290 -98 -5 c-141 -7
-143 -10 -147 -185 l-4 -135 -249 0 -249 0 0 135 c0 131 -1 137 -25 160 -22
23 -32 25 -120 25 -52 0 -95 2 -95 5 0 5 374 482 454 579 l40 48 17 -23 c10
-13 121 -154 247 -314z"/>
<path d="M1670 4735 c-409 -187 -700 -326 -722 -344 -44 -37 -44 -37 -212
-636 -292 -1047 -515 -1890 -575 -2182 -15 -73 -21 -139 -21 -230 0 -119 2
-133 26 -181 30 -61 50 -74 203 -136 101 -41 138 -64 315 -195 629 -462 964
-621 1427 -675 398 -47 886 -14 1341 89 l108 24 73 -33 c197 -90 462 -167 692
-202 155 -24 561 -27 613 -5 63 26 77 100 26 140 -22 17 -38 19 -207 14 -204
-6 -344 5 -537 43 -195 38 -411 109 -558 183 -34 17 -72 31 -86 31 -13 0 -71
-11 -128 -24 -369 -87 -871 -132 -1185 -107 -530 42 -839 182 -1520 687 -172
127 -178 131 -323 190 l-105 42 1 154 0 153 107 415 c237 929 613 2291 640
2317 9 9 831 388 1234 569 l53 24 207 -271 c187 -243 208 -275 208 -309 0 -35
-14 -54 -185 -246 -102 -114 -201 -225 -221 -246 -54 -58 -73 -53 -182 45 -51
46 -103 89 -116 96 -30 17 -64 7 -101 -29 -40 -39 -115 -60 -235 -66 -133 -7
-142 -9 -161 -45 -20 -40 -14 -61 40 -134 l45 -60 41 -695 41 -694 -22 -70
c-30 -100 -65 -166 -107 -202 -99 -85 15 -202 119 -123 47 37 99 129 137 246
l33 99 82 51 c109 69 202 110 317 141 80 21 117 25 235 25 118 0 155 -5 238
-26 106 -28 254 -94 341 -152 136 -90 282 -290 302 -413 12 -78 89 -108 141
-56 23 23 25 31 20 84 -7 79 -67 203 -150 313 l-67 87 87 91 c106 110 191 175
303 233 99 50 188 81 280 96 242 38 536 -39 785 -205 46 -30 94 -55 107 -55
56 0 98 61 77 113 -20 47 -210 166 -364 227 -490 194 -948 90 -1314 -296 l-91
-96 -48 31 c-121 78 -313 151 -467 178 -132 22 -349 13 -470 -20 -103 -29
-211 -74 -286 -118 -28 -16 -53 -28 -56 -26 -2 3 -21 293 -42 644 -21 352 -41
644 -44 650 -4 7 10 13 38 18 54 8 152 40 171 56 11 9 29 -3 85 -55 111 -102
206 -120 312 -58 56 33 481 507 508 567 26 57 25 141 -4 196 -25 50 -444 600
-488 642 -16 15 -39 27 -52 26 -12 0 -330 -141 -707 -314z"/>
<path d="M3872 3700 c-42 -18 -54 -69 -50 -223 3 -138 3 -139 31 -163 l28 -24
365 0 365 0 24 25 c24 24 25 27 25 182 -1 165 -4 178 -47 201 -27 15 -706 16
-741 2z m618 -200 l0 -40 -250 0 -250 0 0 40 0 40 250 0 250 0 0 -40z"/>
<path d="M3873 3195 c-53 -23 -61 -92 -17 -132 25 -23 26 -23 390 -23 l365 0
24 25 c32 31 32 75 1 112 l-24 28 -354 2 c-287 2 -359 0 -385 -12z"/>
<path d="M1172 1337 c-36 -38 -29 -85 22 -155 194 -264 520 -479 850 -562 166
-42 263 -54 446 -53 232 1 439 33 475 73 26 29 25 85 -3 112 -27 27 -59 28
-187 3 -138 -26 -450 -27 -580 -1 -198 39 -388 116 -547 223 -91 61 -257 218
-315 301 -25 34 -53 67 -63 72 -32 17 -75 11 -98 -13z"/>
<path d="M4355 1255 c-49 -48 -23 -140 57 -210 84 -73 242 -136 426 -171 85
-17 92 -17 117 0 48 31 55 95 15 131 -10 9 -67 27 -127 40 -59 12 -144 37
-189 54 -82 32 -164 90 -164 117 0 26 -47 64 -80 64 -19 0 -40 -9 -55 -25z"/>
</g>
</svg>
