<?xml version="1.0" standalone="no"?>
<!DOCTYPE svg PUBLIC "-//W3C//DTD SVG 20010904//EN"
 "http://www.w3.org/TR/2001/REC-SVG-20010904/DTD/svg10.dtd">
<svg version="1.0" xmlns="http://www.w3.org/2000/svg"
 width="512.000000pt" height="512.000000pt" viewBox="0 0 512.000000 512.000000"
 preserveAspectRatio="xMidYMid meet">

<g transform="translate(0.000000,512.000000) scale(0.100000,-0.100000)"
fill="#000000" stroke="none">
<path d="M1115 5107 c-120 -46 -183 -146 -172 -268 9 -99 72 -182 164 -215 21
-7 68 -13 104 -14 l66 0 6 -172 c13 -359 83 -646 233 -948 120 -241 241 -410
461 -640 134 -140 148 -168 148 -290 0 -122 -14 -150 -148 -290 -222 -232
-344 -402 -462 -642 -149 -304 -219 -588 -232 -944 l-6 -172 -82 -4 c-66 -3
-91 -9 -129 -32 -181 -106 -163 -364 30 -453 l51 -23 1424 2 c1386 3 1425 4
1463 22 184 91 195 350 20 452 -38 23 -63 29 -129 32 l-82 4 -6 172 c-13 358
-80 632 -231 941 -120 244 -223 389 -445 625 -153 163 -166 186 -166 310 0
124 13 147 166 310 222 236 325 381 445 625 151 309 218 580 231 941 l6 172
82 4 c66 3 91 9 129 32 175 102 163 361 -20 452 -38 18 -77 19 -1464 21 -1074
1 -1433 -1 -1455 -10z m2866 -186 c37 -38 38 -79 3 -115 l-27 -26 -1397 0
-1397 0 -27 26 c-35 36 -34 77 3 115 l29 29 1392 0 1392 0 29 -29z m-311 -409
c0 -316 -74 -646 -208 -925 -108 -225 -214 -375 -409 -580 -135 -141 -167
-183 -204 -267 -21 -49 -24 -70 -24 -180 0 -111 3 -131 24 -180 36 -81 55
-106 186 -246 210 -222 304 -353 414 -575 143 -287 221 -624 221 -951 l0 -98
-1110 0 -1110 0 0 98 c0 328 78 662 221 951 111 225 200 348 426 589 100 108
132 149 161 210 37 76 37 79 37 202 0 110 -3 131 -24 180 -37 84 -69 126 -204
267 -196 206 -299 351 -408 578 -134 278 -209 609 -209 928 l0 97 1110 0 1110
0 0 -98z m315 -4198 c34 -37 33 -78 -4 -115 l-29 -29 -1392 0 -1392 0 -29 29
c-37 37 -38 78 -4 115 l24 26 1401 0 1401 0 24 -26z"/>
<path d="M2154 3970 c-140 -29 -259 -151 -272 -280 -3 -39 1 -55 34 -110 101
-175 168 -261 331 -432 91 -95 119 -132 152 -200 47 -96 71 -181 71 -253 0
-94 52 -152 118 -129 36 12 62 66 62 129 0 72 24 157 71 255 39 80 54 97 269
311 232 232 285 295 296 357 9 45 -19 101 -58 120 -15 7 -98 16 -195 22 -277
15 -434 52 -576 135 -43 26 -96 53 -117 60 -52 18 -137 25 -186 15z m186 -205
c177 -106 361 -157 613 -172 59 -3 107 -8 107 -11 0 -3 -96 -103 -213 -221
-152 -155 -222 -234 -247 -278 -19 -34 -37 -62 -40 -62 -3 0 -21 27 -40 61
-19 34 -88 117 -152 185 -136 143 -188 209 -263 330 -51 82 -53 88 -40 114 19
35 70 78 103 85 15 3 32 7 37 9 24 8 84 -10 135 -40z"/>
<path d="M2504 2367 c-29 -26 -42 -95 -30 -162 13 -69 91 -92 144 -43 19 19
22 32 22 94 0 88 -4 101 -41 119 -39 21 -64 19 -95 -8z"/>
<path d="M2509 1947 c-28 -21 -39 -54 -39 -112 0 -85 27 -124 88 -125 22 0 41
8 57 25 22 21 25 33 25 100 0 67 -3 79 -25 100 -27 27 -79 33 -106 12z"/>
<path d="M2276 1530 c-73 -13 -144 -38 -206 -73 -70 -39 -264 -235 -330 -333
-59 -88 -98 -205 -107 -314 l-6 -76 32 -27 33 -27 863 0 c612 0 871 3 888 11
40 18 51 50 43 128 -9 105 -49 219 -107 305 -27 41 -102 128 -167 193 -90 92
-132 126 -182 151 -121 60 -150 64 -440 68 -146 1 -287 -1 -314 -6z m537 -170
c114 -17 169 -49 285 -169 57 -58 119 -130 138 -159 30 -45 74 -148 74 -174 0
-4 -337 -8 -750 -8 -412 0 -750 4 -750 8 0 26 44 129 74 174 19 29 81 101 138
159 114 117 174 153 276 168 81 12 434 12 515 1z"/>
</g>
</svg>
