<?xml version="1.0" standalone="no"?>
<!DOCTYPE svg PUBLIC "-//W3C//DTD SVG 20010904//EN"
 "http://www.w3.org/TR/2001/REC-SVG-20010904/DTD/svg10.dtd">
<svg version="1.0" xmlns="http://www.w3.org/2000/svg"
 width="512.000000pt" height="512.000000pt" viewBox="0 0 512.000000 512.000000"
 preserveAspectRatio="xMidYMid meet">

<g transform="translate(0.000000,512.000000) scale(0.100000,-0.100000)"
fill="#000000" stroke="none">
<path d="M3095 5103 c-72 -26 -1585 -900 -1617 -934 -33 -35 -35 -57 -7 -93
14 -18 30 -26 53 -26 24 0 219 108 793 439 419 242 774 446 790 454 72 37 150
28 202 -23 16 -17 49 -65 72 -107 l42 -77 -22 -15 c-53 -36 -3129 -1811 -3138
-1811 -13 1 -101 166 -108 202 -10 50 10 109 47 145 18 17 269 167 558 333
289 166 535 312 548 323 46 42 15 127 -47 127 -36 0 -1116 -625 -1166 -675
-81 -80 -115 -211 -81 -314 16 -48 991 -1748 1046 -1824 16 -21 43 -50 62 -63
l33 -25 5 -447 5 -447 26 -55 c33 -70 89 -126 159 -159 l55 -26 1180 -3 c885
-2 1186 0 1202 9 12 7 27 25 32 40 10 28 12 29 81 29 69 0 71 -1 81 -29 18
-52 21 -52 474 -49 417 3 420 3 472 27 66 29 143 111 169 176 18 48 19 87 19
1120 l0 1070 -28 57 c-30 62 -83 115 -149 150 -42 23 -49 23 -453 28 l-410 5
145 84 c80 46 166 104 192 129 86 82 119 213 81 322 -26 77 -1026 1806 -1071
1853 -81 84 -221 118 -327 80z m920 -1387 c180 -313 332 -586 337 -606 11 -44
-2 -105 -32 -142 -10 -14 -135 -92 -277 -174 l-258 -149 -1185 -5 c-1120 -5
-1188 -6 -1232 -23 -67 -26 -141 -97 -175 -165 l-28 -57 -5 -520 -5 -520 -326
565 c-180 311 -326 566 -325 566 2 2 2609 1506 2886 1666 212 122 277 155 286
145 6 -6 159 -268 339 -581z m-2115 -1656 l0 -90 -130 0 -130 0 0 90 0 90 130
0 130 0 0 -90z m420 0 l0 -90 -130 0 -130 0 0 90 0 90 130 0 130 0 0 -90z
m2150 -160 l0 -90 -420 0 -420 0 0 90 0 90 420 0 420 0 0 -90z m-2150 -170 l0
-90 -340 0 -340 0 0 90 0 90 340 0 340 0 0 -90z"/>
<path d="M3435 3399 c-198 -115 -368 -215 -377 -224 -49 -41 -22 -117 44 -123
29 -3 89 28 394 204 197 114 369 216 382 227 48 44 12 128 -54 126 -19 -1
-157 -75 -389 -210z"/>
<path d="M3820 3239 c-184 -108 -190 -113 -190 -153 0 -40 35 -76 74 -76 33 0
319 163 346 198 25 32 25 53 -1 86 -35 45 -75 35 -229 -55z"/>
</g>
</svg>
