<?xml version="1.0" standalone="no"?>
<!DOCTYPE svg PUBLIC "-//W3C//DTD SVG 20010904//EN"
 "http://www.w3.org/TR/2001/REC-SVG-20010904/DTD/svg10.dtd">
<svg version="1.0" xmlns="http://www.w3.org/2000/svg"
 width="512.000000pt" height="512.000000pt" viewBox="0 0 512.000000 512.000000"
 preserveAspectRatio="xMidYMid meet">

<g transform="translate(0.000000,512.000000) scale(0.100000,-0.100000)"
fill="#000000" stroke="none">
<path d="M3780 4750 c-14 -4 -380 -213 -815 -464 l-789 -456 -866 0 c-822 0
-867 -1 -906 -19 -23 -10 -52 -34 -65 -52 l-24 -34 -3 -486 -3 -487 -124 -72
c-153 -88 -180 -118 -180 -200 0 -54 5 -65 153 -322 l152 -265 0 -264 c0 -250
1 -266 21 -298 44 -73 96 -91 258 -91 l99 0 232 -403 c128 -221 241 -412 253
-424 31 -34 99 -57 144 -48 21 4 67 24 103 45 36 20 374 216 752 434 l686 396
919 0 c515 0 935 4 957 10 49 11 85 37 111 81 19 33 20 57 25 553 l5 520 93
54 c118 69 147 105 147 182 0 54 -5 66 -122 269 l-123 213 0 283 c0 176 -4
294 -11 312 -11 31 -53 78 -84 96 -12 7 -83 14 -168 17 l-149 5 -245 425
c-135 234 -253 434 -262 444 -21 25 -89 56 -121 55 -14 0 -36 -4 -50 -9z m270
-531 c118 -205 217 -376 218 -380 2 -5 -23 -9 -55 -9 l-58 0 -91 158 c-107
185 -111 187 -210 153 -102 -37 -187 -20 -251 50 -15 17 -38 41 -50 55 -43 47
-60 40 -468 -196 l-380 -220 -99 0 c-55 0 -97 2 -94 5 12 12 1304 755 1313
755 6 0 107 -167 225 -371z m-538 -169 c20 -17 63 -43 95 -58 52 -24 69 -27
171 -27 l112 0 39 -68 40 -67 -467 0 c-290 0 -461 4 -452 10 96 59 407 238
415 239 6 1 27 -13 47 -29z m1196 -1512 l2 -1128 -2120 0 -2120 0 0 1130 0
1130 2118 -2 2117 -3 3 -1127z m220 161 l32 -57 -22 -14 c-13 -8 -33 -20 -45
-27 l-23 -12 0 103 c0 114 -2 114 58 7z m-4628 -301 l0 -163 -61 105 c-33 58
-65 113 -70 122 -8 14 3 24 58 57 38 22 69 40 71 41 1 0 2 -73 2 -162z m771
-1291 c91 -158 97 -162 195 -128 50 18 77 22 116 18 63 -8 130 -46 158 -92 25
-41 48 -55 86 -55 17 0 152 72 366 195 l338 196 98 -3 98 -3 -604 -349 c-332
-192 -612 -350 -621 -353 -12 -3 -63 78 -216 342 -110 191 -201 351 -203 356
-2 5 23 9 55 9 l58 -1 76 -132z m760 33 c-95 -55 -176 -100 -180 -100 -3 0
-23 14 -43 30 -20 17 -63 43 -95 58 -52 24 -69 27 -171 27 l-113 0 -24 43 -24
42 412 0 412 0 -174 -100z"/>
<path d="M901 3534 c-12 -15 -21 -38 -21 -53 0 -114 -95 -211 -222 -226 -35
-5 -53 -13 -68 -32 -20 -26 -20 -34 -18 -695 l3 -670 22 -17 c12 -10 44 -21
72 -24 118 -14 194 -90 208 -210 4 -34 14 -59 29 -74 l23 -23 1655 0 1655 0
26 23 c19 16 28 37 35 79 5 31 16 70 24 86 34 66 130 122 209 122 13 0 33 10
45 23 l22 23 0 672 c0 652 -1 673 -19 691 -11 11 -37 23 -58 26 -81 13 -115
27 -157 68 -43 41 -58 74 -71 160 -3 21 -15 47 -26 58 -19 19 -48 19 -1683 19
l-1665 0 -20 -26z m3264 -198 c41 -102 109 -170 211 -211 l59 -24 3 -565 c2
-450 0 -566 -10 -566 -29 0 -120 -51 -164 -92 -55 -50 -86 -97 -107 -159 l-15
-44 -1554 -3 -1554 -2 -17 52 c-32 102 -128 196 -238 235 l-49 18 0 561 0 561
60 22 c80 29 168 111 210 193 16 34 30 67 30 75 0 11 259 13 1556 11 l1555 -3
24 -59z"/>
<path d="M2424 3265 c-86 -19 -156 -50 -251 -112 -393 -258 -445 -815 -107
-1148 393 -386 1051 -226 1230 300 22 64 28 104 32 201 5 147 -16 245 -80 374
-34 69 -60 103 -138 180 -77 78 -111 104 -180 138 -117 58 -218 82 -344 81
-56 0 -128 -7 -162 -14z m346 -175 c174 -59 318 -203 371 -369 29 -91 35 -227
15 -315 -48 -201 -210 -372 -411 -432 -81 -24 -229 -24 -310 0 -201 60 -353
212 -411 411 -21 73 -23 209 -5 285 50 208 217 376 431 435 79 21 235 14 320
-15z"/>
<path d="M2553 3050 c-26 -10 -43 -39 -43 -72 0 -18 -11 -28 -49 -46 -128 -58
-186 -199 -132 -317 35 -79 113 -128 251 -159 41 -9 90 -25 107 -36 35 -21 52
-63 36 -89 -17 -29 -76 -51 -134 -51 -67 0 -115 27 -141 80 -38 76 -98 92
-142 39 -32 -37 -32 -50 -2 -114 28 -61 101 -128 159 -148 35 -11 43 -18 45
-43 8 -71 99 -102 141 -48 12 15 21 37 21 49 0 17 12 26 56 45 135 55 191 163
153 291 -28 90 -106 147 -255 184 -110 27 -147 49 -152 90 -11 90 159 124 220
44 50 -66 66 -79 101 -79 41 0 77 34 77 74 0 64 -73 152 -157 190 -34 15 -43
24 -43 43 0 29 -51 83 -77 82 -10 0 -28 -4 -40 -9z"/>
<path d="M1260 2771 c-178 -58 -236 -256 -117 -397 61 -72 194 -97 284 -53
142 69 179 264 70 377 -18 19 -49 43 -71 54 -43 22 -128 32 -166 19z m118
-187 c29 -33 28 -69 -3 -99 -64 -65 -170 15 -120 91 32 49 82 52 123 8z"/>
<path d="M3771 2763 c-24 -9 -64 -35 -87 -59 -151 -151 -44 -404 171 -404 138
0 238 102 237 242 0 104 -68 194 -168 224 -59 18 -97 17 -153 -3z m110 -153
c21 0 49 -42 49 -72 0 -67 -84 -104 -130 -58 -26 26 -27 91 -2 112 22 20 44
28 60 22 8 -2 18 -4 23 -4z"/>
</g>
</svg>
