<?xml version="1.0" standalone="no"?>
<!DOCTYPE svg PUBLIC "-//W3C//DTD SVG 20010904//EN"
 "http://www.w3.org/TR/2001/REC-SVG-20010904/DTD/svg10.dtd">
<svg version="1.0" xmlns="http://www.w3.org/2000/svg"
 width="512.000000pt" height="512.000000pt" viewBox="0 0 512.000000 512.000000"
 preserveAspectRatio="xMidYMid meet">

<g transform="translate(0.000000,512.000000) scale(0.100000,-0.100000)"
fill="#000000" stroke="none">
<path d="M488 3789 c-86 -20 -161 -70 -269 -178 -108 -107 -144 -161 -170
-251 -16 -60 -15 -1476 2 -1560 20 -98 61 -163 182 -285 175 -178 215 -191
549 -177 313 13 330 21 504 225 134 156 138 170 130 416 l-5 193 32 -6 c293
-60 596 -86 1012 -86 427 0 771 22 1103 71 79 12 146 19 148 16 3 -3 1 -77 -4
-164 -15 -236 -2 -282 122 -430 175 -210 201 -221 518 -235 257 -11 308 -4
407 55 69 41 241 223 280 296 16 31 35 85 41 121 7 45 10 295 8 810 l-3 745
-33 70 c-27 57 -53 90 -145 180 -183 179 -222 191 -562 177 -248 -10 -277 -16
-362 -74 -65 -44 -221 -222 -251 -286 -26 -56 -27 -61 -26 -244 1 -103 5 -199
8 -214 7 -26 6 -26 -26 -20 -296 61 -597 86 -1018 86 -427 0 -718 -19 -1058
-66 -101 -14 -185 -24 -186 -22 -1 1 1 46 5 98 26 340 9 390 -196 596 -86 86
-142 119 -229 134 -76 13 -465 20 -508 9z m551 -236 c58 -32 203 -169 227
-216 12 -23 22 -98 35 -282 10 -137 23 -306 30 -375 9 -103 9 -162 -4 -340 -9
-118 -19 -271 -23 -340 -9 -198 -17 -217 -137 -334 -144 -141 -141 -140 -401
-131 -178 6 -217 10 -252 26 -44 21 -199 187 -221 237 -16 36 -18 1458 -2
1514 11 43 161 208 213 236 32 17 148 26 377 30 99 2 110 0 158 -25z m3566 -2
c44 -20 182 -158 212 -213 17 -31 18 -79 21 -770 2 -580 0 -743 -10 -767 -18
-41 -166 -208 -208 -234 -31 -19 -56 -22 -255 -30 -154 -7 -228 -6 -247 2
l-28 11 0 184 c0 278 11 305 248 596 230 282 232 287 232 752 0 223 -4 339
-10 343 -6 4 -17 1 -25 -5 -13 -10 -15 -66 -15 -344 0 -449 2 -441 -222 -716
-238 -293 -249 -318 -257 -585 l-6 -190 -82 79 c-110 105 -123 135 -134 294
-4 70 -16 235 -25 367 -16 223 -16 253 -1 420 9 99 21 250 27 335 14 214 17
233 48 278 38 56 195 197 235 210 21 8 103 9 247 6 175 -5 223 -9 255 -23z
m-3045 -685 c239 -37 591 -63 973 -72 l276 -7 -22 -40 c-52 -94 -129 -134
-302 -159 -81 -12 -149 -27 -182 -42 -64 -30 -128 -93 -171 -168 -37 -63 -24
-59 -217 -73 -148 -11 -428 -51 -496 -71 -25 -7 -44 294 -29 453 20 214 18
205 48 199 15 -3 70 -12 122 -20z m2154 -13 c3 -21 6 -51 6 -68 l0 -29 -55 54
-56 55 43 12 c24 6 46 11 49 12 4 1 9 -16 13 -36z m-76 -96 l93 -93 6 -72 c3
-40 2 -72 -3 -72 -10 0 -314 301 -314 312 0 7 36 14 90 17 32 1 44 -8 128 -92z
m-101 -119 c208 -208 202 -198 186 -291 l-6 -39 -248 248 c-137 137 -249 252
-249 256 0 4 21 9 48 11 26 2 54 4 62 5 8 1 101 -85 207 -190z m-102 -118
c159 -159 283 -290 275 -289 -8 0 -48 6 -89 13 l-73 13 -269 269 -269 269 32
6 c100 19 76 36 393 -281z m-235 14 l265 -266 -49 6 c-27 3 -63 6 -79 6 -27 0
-62 30 -263 232 l-233 231 15 29 c11 22 21 28 47 28 29 0 60 -28 297 -266z
m10 -234 c0 -3 -34 -3 -76 1 l-76 6 -156 156 -156 156 35 39 34 39 198 -196
c108 -108 197 -198 197 -201z m-365 150 l140 -141 -80 7 -80 6 -112 111 c-62
62 -113 114 -113 117 0 4 61 27 100 39 3 0 68 -62 145 -139z m-208 -12 c57
-57 103 -107 103 -111 0 -5 -33 -6 -72 -2 l-73 7 -98 96 -98 97 38 6 c93 15
90 16 200 -93z m-202 -18 l90 -90 -75 0 -76 0 -62 63 -62 63 42 27 c23 15 45
27 48 27 3 0 46 -40 95 -90z m-172 -48 c21 -21 34 -41 31 -45 -8 -8 -134 -10
-134 -2 0 10 53 85 59 85 4 0 24 -17 44 -38z"/>
</g>
</svg>
