<?xml version="1.0" standalone="no"?>
<!DOCTYPE svg PUBLIC "-//W3C//DTD SVG 20010904//EN"
 "http://www.w3.org/TR/2001/REC-SVG-20010904/DTD/svg10.dtd">
<svg version="1.0" xmlns="http://www.w3.org/2000/svg"
 width="512.000000pt" height="512.000000pt" viewBox="0 0 512.000000 512.000000"
 preserveAspectRatio="xMidYMid meet">

<g transform="translate(0.000000,512.000000) scale(0.100000,-0.100000)"
fill="#000000" stroke="none">
<path d="M3946 4975 c-101 -21 -161 -42 -258 -92 -215 -110 -379 -312 -454
-559 -24 -79 -27 -106 -28 -239 -1 -126 3 -163 22 -234 95 -348 387 -615 735
-671 96 -16 288 -8 377 15 146 38 310 133 416 241 295 299 350 752 134 1116
-81 136 -255 292 -396 354 -31 14 -95 36 -143 50 -109 32 -299 41 -405 19z
m297 -159 c377 -72 634 -397 614 -776 -16 -322 -222 -583 -537 -682 -63 -19
-96 -23 -210 -23 -114 0 -147 4 -210 23 -208 65 -374 207 -465 397 -53 110
-69 184 -69 320 -1 145 15 211 81 345 39 80 60 109 137 185 183 183 417 257
659 211z"/>
<path d="M4065 4665 c-19 -18 -25 -35 -25 -70 0 -44 -1 -46 -43 -64 -58 -25
-102 -64 -135 -120 -23 -40 -27 -57 -27 -126 0 -91 16 -132 72 -188 44 -45
105 -73 196 -94 40 -9 84 -22 99 -30 53 -26 74 -105 42 -152 -36 -51 -151 -68
-212 -31 -34 21 -45 39 -62 107 -18 73 -87 97 -137 47 -23 -23 -25 -31 -20
-77 8 -65 49 -148 90 -183 18 -15 56 -38 85 -51 51 -24 52 -25 52 -69 0 -56
33 -94 80 -94 49 0 80 38 80 97 l0 49 47 14 c62 18 146 100 162 156 15 55 14
134 -4 185 -35 99 -112 155 -257 188 -101 24 -131 40 -148 81 -27 66 13 134
89 151 77 17 136 -10 147 -68 9 -54 39 -83 85 -83 91 0 105 120 25 225 -16 20
-51 46 -86 62 -55 26 -60 31 -60 60 0 88 -80 134 -135 78z"/>
<path d="M544 4950 c-219 -33 -399 -200 -449 -415 -13 -56 -15 -311 -13 -2022
l3 -1958 25 -65 c65 -166 184 -280 350 -336 52 -18 105 -19 1080 -19 l1025 0
64 23 c164 59 277 173 339 341 20 54 25 91 30 203 l5 138 931 2 931 3 40 22
c47 25 85 64 111 113 18 33 19 76 19 945 l0 910 -28 48 c-35 60 -93 102 -158
116 -33 7 -347 11 -949 11 l-900 0 0 723 c0 793 -1 803 -60 924 -60 122 -185
230 -319 276 l-66 22 -980 1 c-539 1 -1003 -2 -1031 -6z m2294 -2398 l2 -1562
-1300 0 -1300 0 0 1565 0 1565 1298 -2 1297 -3 3 -1563z m1180 210 c28 -43 54
-86 58 -95 6 -16 -34 -17 -535 -17 l-541 0 0 95 0 95 483 0 483 0 52 -78z
m175 -331 c36 -102 126 -192 234 -237 l58 -23 3 -249 2 -249 -42 -12 c-105
-32 -211 -129 -247 -226 -12 -31 -21 -60 -21 -65 0 -6 -219 -10 -590 -10
l-590 0 0 70 c0 39 1 70 3 70 1 0 27 -7 57 -15 311 -83 612 187 563 505 -29
187 -167 335 -352 376 -80 18 -160 15 -230 -10 l-41 -14 0 69 0 69 588 0 587
0 18 -49z m-898 -245 c251 -119 208 -490 -63 -547 -64 -13 -145 -1 -196 29
l-31 18 -3 237 -2 238 52 24 c73 34 173 34 243 1z m533 -1081 l-97 -95 -365 0
-366 0 0 95 0 95 463 0 462 -1 -97 -94z"/>
<path d="M1395 3500 c-333 -53 -630 -291 -754 -603 -49 -123 -65 -217 -64
-362 1 -105 6 -149 27 -229 88 -336 333 -589 673 -693 81 -24 102 -27 258 -27
144 0 182 3 248 22 331 92 582 338 684 669 25 81 27 102 27 263 1 196 -12 262
-79 406 -67 147 -199 304 -329 393 -75 52 -224 118 -316 141 -98 24 -284 34
-375 20z m76 -211 c82 -54 190 -158 240 -233 39 -59 40 -60 21 -76 -11 -8 -99
-105 -197 -215 -97 -110 -180 -201 -185 -203 -4 -1 -27 14 -51 34 -59 49 -97
64 -167 64 -165 0 -272 -176 -197 -326 18 -37 60 -80 166 -174 77 -69 159
-136 181 -149 49 -30 112 -32 157 -5 18 10 110 106 204 213 95 107 184 208
200 225 l27 31 -6 -40 c-30 -199 -119 -378 -256 -515 -72 -72 -200 -160 -233
-160 -34 0 -162 47 -224 81 -182 103 -317 271 -381 474 -28 90 -38 268 -20
368 50 288 263 531 545 623 39 13 79 23 91 24 11 0 50 -19 85 -41z m441 -436
c27 -24 22 -58 -15 -100 -19 -21 -143 -162 -277 -313 -133 -151 -246 -279
-251 -284 -7 -8 -252 201 -286 244 -18 22 -16 44 8 74 33 42 60 34 150 -44 88
-76 126 -88 166 -52 11 9 94 100 183 202 269 305 278 313 322 273z"/>
<path d="M3933 1985 c-72 -51 -3 -168 79 -134 78 32 58 149 -25 149 -18 0 -42
-7 -54 -15z"/>
</g>
</svg>
